<mxfile host="app.diagrams.net" modified="2022-02-27T20:14:56.967Z" agent="5.0 (X11; Linux x86_64) AppleWebKit/537.36 (KHTML, like Gecko) Chrome/98.0.4758.102 Safari/537.36" etag="nyal8WvgTbmBaUgQTJBt" version="16.6.2" type="github">
  <diagram name="Page-1" id="c4acf3e9-155e-7222-9cf6-157b1a14988f">
    <mxGraphModel dx="1673" dy="1065" grid="1" gridSize="10" guides="1" tooltips="1" connect="1" arrows="1" fold="1" page="1" pageScale="1" pageWidth="850" pageHeight="1100" background="none" math="0" shadow="0">
      <root>
        <mxCell id="0" />
        <mxCell id="1" parent="0" />
        <mxCell id="17acba5748e5396b-1" value="frame" style="shape=umlFrame;whiteSpace=wrap;html=1;rounded=0;shadow=0;comic=0;labelBackgroundColor=none;strokeWidth=1;fontFamily=Verdana;fontSize=10;align=center;" parent="1" vertex="1">
          <mxGeometry x="15" y="20" width="820" height="1060" as="geometry" />
        </mxCell>
        <mxCell id="5d2195bd80daf111-8" value="Отправить&lt;br&gt;&lt;b&gt;Button&lt;/b&gt;" style="html=1;rounded=0;shadow=0;comic=0;labelBackgroundColor=none;strokeWidth=1;fontFamily=Verdana;fontSize=10;align=center;" parent="1" vertex="1">
          <mxGeometry x="247.5" y="578" width="270" height="50" as="geometry" />
        </mxCell>
        <mxCell id="5d2195bd80daf111-11" value="&lt;p style=&quot;margin: 0px ; margin-top: 4px ; text-align: center&quot;&gt;&lt;i&gt;Отправляем форму&lt;/i&gt;&lt;br&gt;&lt;b&gt;Function&lt;/b&gt;&lt;/p&gt;&lt;p style=&quot;margin: 0px ; margin-left: 4px&quot;&gt;&lt;br&gt;&lt;/p&gt;" style="verticalAlign=top;align=left;overflow=fill;fontSize=12;fontFamily=Helvetica;html=1;rounded=0;shadow=0;comic=0;labelBackgroundColor=none;strokeWidth=1" parent="1" vertex="1">
          <mxGeometry x="190" y="908" width="190" height="42" as="geometry" />
        </mxCell>
        <mxCell id="5d2195bd80daf111-13" value="Ответы в полях сохраняются в кэше браузера&lt;br&gt;&lt;b&gt;Function&lt;/b&gt;" style="html=1;rounded=0;shadow=0;comic=0;labelBackgroundColor=none;strokeWidth=1;fontFamily=Verdana;fontSize=10;align=center;" parent="1" vertex="1">
          <mxGeometry x="250" y="500" width="265" height="50" as="geometry" />
        </mxCell>
        <mxCell id="5d2195bd80daf111-14" value="&quot;Баг&quot;&lt;br&gt;&lt;b&gt;Button&lt;/b&gt;" style="html=1;rounded=0;shadow=0;comic=0;labelBackgroundColor=none;strokeWidth=1;fontFamily=Verdana;fontSize=10;align=center;" parent="1" vertex="1">
          <mxGeometry x="340" y="225" width="110" height="50" as="geometry" />
        </mxCell>
        <mxCell id="5d2195bd80daf111-17" value="&quot;Предложение&quot;&lt;br&gt;&lt;b&gt;Button&lt;/b&gt;" style="html=1;rounded=0;shadow=0;comic=0;labelBackgroundColor=none;strokeWidth=1;fontFamily=Verdana;fontSize=10;align=center;" parent="1" vertex="1">
          <mxGeometry x="500" y="225" width="110" height="50" as="geometry" />
        </mxCell>
        <mxCell id="FRwMUUEF5Kaj_kLQmgXz-11" style="edgeStyle=orthogonalEdgeStyle;rounded=0;orthogonalLoop=1;jettySize=auto;html=1;exitX=1;exitY=0.75;exitDx=0;exitDy=0;entryX=0;entryY=0.75;entryDx=0;entryDy=0;" edge="1" parent="1" source="5d2195bd80daf111-18" target="5d2195bd80daf111-19">
          <mxGeometry relative="1" as="geometry" />
        </mxCell>
        <mxCell id="5d2195bd80daf111-18" value="&lt;p style=&quot;margin: 0px ; margin-top: 4px ; text-align: center&quot;&gt;&lt;i&gt;Любая страница сайта&lt;/i&gt;&lt;br&gt;&lt;b&gt;Interface&lt;/b&gt;&lt;/p&gt;&lt;hr size=&quot;1&quot;&gt;&lt;p style=&quot;margin: 0px ; margin-left: 4px&quot;&gt;+ Шапка сайта&lt;br&gt;+ В шапке ссылка на страницу анкеты&lt;/p&gt;&lt;hr size=&quot;1&quot;&gt;&lt;p style=&quot;margin: 0px ; margin-left: 4px&quot;&gt;+ Нажатие курсорм мыши&lt;br&gt;+ Выбор ссылки клавишами Tab, Ctrl+Tab&lt;/p&gt;" style="verticalAlign=top;align=left;overflow=fill;fontSize=12;fontFamily=Helvetica;html=1;rounded=0;shadow=0;comic=0;labelBackgroundColor=none;strokeWidth=1" parent="1" vertex="1">
          <mxGeometry x="20" y="70" width="270" height="123" as="geometry" />
        </mxCell>
        <mxCell id="FRwMUUEF5Kaj_kLQmgXz-13" value="" style="edgeStyle=orthogonalEdgeStyle;rounded=0;orthogonalLoop=1;jettySize=auto;html=1;" edge="1" parent="1" source="5d2195bd80daf111-19" target="5d2195bd80daf111-17">
          <mxGeometry relative="1" as="geometry">
            <Array as="points">
              <mxPoint x="480" y="200" />
              <mxPoint x="555" y="200" />
            </Array>
          </mxGeometry>
        </mxCell>
        <mxCell id="5d2195bd80daf111-19" value="&lt;p style=&quot;margin: 0px ; margin-top: 4px ; text-align: center&quot;&gt;&lt;i&gt;Страница с выбором акеты&lt;/i&gt;&lt;br&gt;&lt;b&gt;Interface&lt;/b&gt;&lt;/p&gt;&lt;hr size=&quot;1&quot;&gt;&lt;p style=&quot;margin: 0px ; margin-left: 4px&quot;&gt;+ Описание анкет&lt;br&gt;+ Две кнопки: баг и предложение&lt;/p&gt;&lt;hr size=&quot;1&quot;&gt;&lt;p style=&quot;margin: 0px ; margin-left: 4px&quot;&gt;+ Нажатие курсором мыши&lt;br&gt;&lt;/p&gt;" style="verticalAlign=top;align=left;overflow=fill;fontSize=12;fontFamily=Helvetica;html=1;rounded=0;shadow=0;comic=0;labelBackgroundColor=none;strokeWidth=1" parent="1" vertex="1">
          <mxGeometry x="340" y="50" width="270" height="130" as="geometry" />
        </mxCell>
        <mxCell id="5d2195bd80daf111-20" value="&lt;p style=&quot;margin: 4px 0px 0px ; text-align: center ; line-height: 1&quot;&gt;Извещение о баге&lt;br&gt;&lt;b&gt;Interface&lt;/b&gt;&lt;/p&gt;&lt;hr size=&quot;1&quot;&gt;&lt;p style=&quot;margin: 0px ; margin-left: 4px&quot;&gt;&lt;/p&gt;&lt;font style=&quot;font-size: 12px&quot;&gt;&lt;span style=&quot;background-color: rgb(248 , 249 , 250)&quot;&gt;&amp;nbsp;+ К&lt;/span&gt;&lt;span style=&quot;color: rgb(23 , 43 , 77) ; background-color: rgb(255 , 255 , 255)&quot;&gt;акой результат ожидается от действия (обяз.)&lt;br&gt;&lt;/span&gt;&lt;span style=&quot;background-color: rgb(248 , 249 , 250)&quot;&gt;&amp;nbsp;+ К&lt;/span&gt;&lt;/font&gt;&lt;span style=&quot;color: rgb(23 , 43 , 77) ; background-color: rgb(255 , 255 , 255)&quot;&gt;&lt;font style=&quot;font-size: 12px&quot;&gt;акой результат получен из-за бага (обяз.)&lt;br&gt;&amp;nbsp;+ Шаги для повторения бага&lt;/font&gt;&lt;br&gt;&lt;/span&gt;&lt;hr size=&quot;1&quot;&gt;&lt;p style=&quot;margin: 0px ; margin-left: 4px&quot;&gt;+ ввод с клавиатуры&lt;/p&gt;" style="verticalAlign=top;align=left;overflow=fill;fontSize=12;fontFamily=Helvetica;html=1;rounded=0;shadow=0;comic=0;labelBackgroundColor=none;strokeWidth=1;direction=west;" parent="1" vertex="1">
          <mxGeometry x="20" y="330" width="340" height="120" as="geometry" />
        </mxCell>
        <mxCell id="FRwMUUEF5Kaj_kLQmgXz-14" value="" style="endArrow=classic;html=1;rounded=0;entryX=0.5;entryY=0;entryDx=0;entryDy=0;" edge="1" parent="1" target="5d2195bd80daf111-14">
          <mxGeometry width="50" height="50" relative="1" as="geometry">
            <mxPoint x="480" y="200" as="sourcePoint" />
            <mxPoint x="690" y="440" as="targetPoint" />
            <Array as="points">
              <mxPoint x="395" y="200" />
            </Array>
          </mxGeometry>
        </mxCell>
        <mxCell id="FRwMUUEF5Kaj_kLQmgXz-18" value="&lt;p style=&quot;margin: 4px 0px 0px ; text-align: center ; line-height: 1&quot;&gt;Предложение новой функции&lt;br&gt;&lt;b&gt;Interface&lt;/b&gt;&lt;/p&gt;&lt;hr size=&quot;1&quot;&gt;&lt;p style=&quot;margin: 0px ; margin-left: 4px&quot;&gt;&lt;/p&gt;&lt;font style=&quot;font-size: 12px&quot;&gt;&lt;span style=&quot;background-color: rgb(248 , 249 , 250)&quot;&gt;&amp;nbsp;+ О&lt;/span&gt;&lt;span style=&quot;color: rgb(23 , 43 , 77) ; font-family: , &amp;#34;blinkmacsystemfont&amp;#34; , &amp;#34;segoe ui&amp;#34; , &amp;#34;roboto&amp;#34; , &amp;#34;oxygen&amp;#34; , &amp;#34;ubuntu&amp;#34; , &amp;#34;fira sans&amp;#34; , &amp;#34;droid sans&amp;#34; , &amp;#34;helvetica neue&amp;#34; , sans-serif ; font-size: 14px ; background-color: rgb(255 , 255 , 255)&quot;&gt;писание работы новой функции&lt;/span&gt;&lt;span style=&quot;color: rgb(23 , 43 , 77) ; background-color: rgb(255 , 255 , 255)&quot;&gt;&amp;nbsp;(обяз.)&lt;br&gt;&lt;/span&gt;&lt;span style=&quot;background-color: rgb(248 , 249 , 250)&quot;&gt;&amp;nbsp;+ Н&lt;/span&gt;&lt;/font&gt;&lt;span style=&quot;color: rgb(23 , 43 , 77) ; font-family: , &amp;#34;blinkmacsystemfont&amp;#34; , &amp;#34;segoe ui&amp;#34; , &amp;#34;roboto&amp;#34; , &amp;#34;oxygen&amp;#34; , &amp;#34;ubuntu&amp;#34; , &amp;#34;fira sans&amp;#34; , &amp;#34;droid sans&amp;#34; , &amp;#34;helvetica neue&amp;#34; , sans-serif ; font-size: 14px ; background-color: rgb(255 , 255 , 255)&quot;&gt;азначение функции&lt;/span&gt;&lt;span style=&quot;color: rgb(23 , 43 , 77) ; background-color: rgb(255 , 255 , 255)&quot;&gt;&lt;font style=&quot;font-size: 12px&quot;&gt;&amp;nbsp;(обяз.)&lt;br&gt;&amp;nbsp;+ Как бы вы реализовали функцию&lt;/font&gt;&lt;br&gt;&lt;/span&gt;&lt;hr size=&quot;1&quot;&gt;&lt;p style=&quot;margin: 0px ; margin-left: 4px&quot;&gt;+ ввод с клавиатуры&lt;/p&gt;" style="verticalAlign=top;align=left;overflow=fill;fontSize=12;fontFamily=Helvetica;html=1;rounded=0;shadow=0;comic=0;labelBackgroundColor=none;strokeWidth=1;direction=west;" vertex="1" parent="1">
          <mxGeometry x="385" y="330" width="340" height="120" as="geometry" />
        </mxCell>
        <mxCell id="FRwMUUEF5Kaj_kLQmgXz-21" value="" style="endArrow=classic;html=1;rounded=0;fontSize=12;exitX=0.518;exitY=-0.002;exitDx=0;exitDy=0;exitPerimeter=0;" edge="1" parent="1" source="5d2195bd80daf111-20">
          <mxGeometry width="50" height="50" relative="1" as="geometry">
            <mxPoint x="380" y="480" as="sourcePoint" />
            <mxPoint x="345" y="500" as="targetPoint" />
            <Array as="points">
              <mxPoint x="184" y="480" />
              <mxPoint x="400" y="480" />
              <mxPoint x="345" y="480" />
            </Array>
          </mxGeometry>
        </mxCell>
        <mxCell id="FRwMUUEF5Kaj_kLQmgXz-24" value="Проверить заполнены ли обязательные поля&lt;br&gt;&lt;b&gt;Function&lt;/b&gt;" style="html=1;rounded=0;shadow=0;comic=0;labelBackgroundColor=none;strokeWidth=1;fontFamily=Verdana;fontSize=10;align=center;" vertex="1" parent="1">
          <mxGeometry x="245" y="660" width="270" height="50" as="geometry" />
        </mxCell>
        <mxCell id="FRwMUUEF5Kaj_kLQmgXz-25" value="&quot;Да&quot;&lt;br&gt;&lt;b&gt;Answer&lt;/b&gt;" style="html=1;rounded=0;shadow=0;comic=0;labelBackgroundColor=none;strokeWidth=1;fontFamily=Verdana;fontSize=10;align=center;" vertex="1" parent="1">
          <mxGeometry x="230" y="760" width="110" height="50" as="geometry" />
        </mxCell>
        <mxCell id="FRwMUUEF5Kaj_kLQmgXz-26" value="&quot;Нет&quot;&lt;br&gt;&lt;b&gt;Answer&lt;/b&gt;" style="html=1;rounded=0;shadow=0;comic=0;labelBackgroundColor=none;strokeWidth=1;fontFamily=Verdana;fontSize=10;align=center;" vertex="1" parent="1">
          <mxGeometry x="420" y="760" width="110" height="50" as="geometry" />
        </mxCell>
        <mxCell id="FRwMUUEF5Kaj_kLQmgXz-27" value="" style="endArrow=classic;html=1;rounded=0;fontSize=12;exitX=1;exitY=0.5;exitDx=0;exitDy=0;entryX=1;entryY=0.5;entryDx=0;entryDy=0;" edge="1" parent="1" source="FRwMUUEF5Kaj_kLQmgXz-26" target="5d2195bd80daf111-13">
          <mxGeometry width="50" height="50" relative="1" as="geometry">
            <mxPoint x="400" y="790" as="sourcePoint" />
            <mxPoint x="450" y="740" as="targetPoint" />
            <Array as="points">
              <mxPoint x="560" y="785" />
              <mxPoint x="560" y="525" />
            </Array>
          </mxGeometry>
        </mxCell>
        <mxCell id="FRwMUUEF5Kaj_kLQmgXz-28" value="" style="endArrow=classic;html=1;rounded=0;fontSize=12;exitX=0.5;exitY=1;exitDx=0;exitDy=0;exitPerimeter=0;entryX=0.5;entryY=0;entryDx=0;entryDy=0;" edge="1" parent="1" source="5d2195bd80daf111-13" target="5d2195bd80daf111-8">
          <mxGeometry width="50" height="50" relative="1" as="geometry">
            <mxPoint x="400" y="620" as="sourcePoint" />
            <mxPoint x="450" y="570" as="targetPoint" />
          </mxGeometry>
        </mxCell>
        <mxCell id="FRwMUUEF5Kaj_kLQmgXz-29" value="" style="endArrow=classic;html=1;rounded=0;fontSize=12;exitX=0.5;exitY=1;exitDx=0;exitDy=0;exitPerimeter=0;entryX=0.5;entryY=0;entryDx=0;entryDy=0;" edge="1" parent="1" target="FRwMUUEF5Kaj_kLQmgXz-24">
          <mxGeometry width="50" height="50" relative="1" as="geometry">
            <mxPoint x="380" y="628" as="sourcePoint" />
            <mxPoint x="380" y="656" as="targetPoint" />
          </mxGeometry>
        </mxCell>
        <mxCell id="FRwMUUEF5Kaj_kLQmgXz-31" value="" style="endArrow=classic;html=1;rounded=0;fontSize=12;exitX=0.469;exitY=0.993;exitDx=0;exitDy=0;exitPerimeter=0;entryX=0.478;entryY=-0.007;entryDx=0;entryDy=0;entryPerimeter=0;" edge="1" parent="1" source="FRwMUUEF5Kaj_kLQmgXz-25" target="5d2195bd80daf111-11">
          <mxGeometry width="50" height="50" relative="1" as="geometry">
            <mxPoint x="410" y="880" as="sourcePoint" />
            <mxPoint x="460" y="830" as="targetPoint" />
          </mxGeometry>
        </mxCell>
        <mxCell id="FRwMUUEF5Kaj_kLQmgXz-32" value="" style="endArrow=classic;startArrow=classic;html=1;rounded=0;fontSize=12;exitX=1;exitY=0.5;exitDx=0;exitDy=0;entryX=0;entryY=0.5;entryDx=0;entryDy=0;" edge="1" parent="1" source="FRwMUUEF5Kaj_kLQmgXz-25" target="FRwMUUEF5Kaj_kLQmgXz-26">
          <mxGeometry width="50" height="50" relative="1" as="geometry">
            <mxPoint x="390" y="750" as="sourcePoint" />
            <mxPoint x="440" y="700" as="targetPoint" />
            <Array as="points">
              <mxPoint x="380" y="780" />
            </Array>
          </mxGeometry>
        </mxCell>
        <mxCell id="FRwMUUEF5Kaj_kLQmgXz-33" value="" style="endArrow=none;html=1;rounded=0;fontSize=12;" edge="1" parent="1">
          <mxGeometry width="50" height="50" relative="1" as="geometry">
            <mxPoint x="380" y="710" as="sourcePoint" />
            <mxPoint x="380" y="780" as="targetPoint" />
          </mxGeometry>
        </mxCell>
        <mxCell id="FRwMUUEF5Kaj_kLQmgXz-34" value="" style="endArrow=classic;html=1;rounded=0;fontSize=12;" edge="1" parent="1" source="5d2195bd80daf111-14" target="5d2195bd80daf111-20">
          <mxGeometry width="50" height="50" relative="1" as="geometry">
            <mxPoint x="310" y="480" as="sourcePoint" />
            <mxPoint x="360" y="430" as="targetPoint" />
            <Array as="points">
              <mxPoint x="190" y="250" />
            </Array>
          </mxGeometry>
        </mxCell>
        <mxCell id="FRwMUUEF5Kaj_kLQmgXz-35" value="" style="endArrow=classic;html=1;rounded=0;fontSize=12;exitX=0.5;exitY=1;exitDx=0;exitDy=0;" edge="1" parent="1" source="5d2195bd80daf111-17" target="FRwMUUEF5Kaj_kLQmgXz-18">
          <mxGeometry width="50" height="50" relative="1" as="geometry">
            <mxPoint x="310" y="480" as="sourcePoint" />
            <mxPoint x="360" y="430" as="targetPoint" />
          </mxGeometry>
        </mxCell>
        <mxCell id="FRwMUUEF5Kaj_kLQmgXz-36" value="" style="endArrow=none;html=1;rounded=0;fontSize=12;" edge="1" parent="1">
          <mxGeometry width="50" height="50" relative="1" as="geometry">
            <mxPoint x="400" y="480" as="sourcePoint" />
            <mxPoint x="530" y="450" as="targetPoint" />
            <Array as="points">
              <mxPoint x="530" y="480" />
            </Array>
          </mxGeometry>
        </mxCell>
      </root>
    </mxGraphModel>
  </diagram>
</mxfile>
